<svg xmlns="http://www.w3.org/2000/svg" viewBox="0 0 180 180" width="180" height="180">
  <!-- Shree Ganesh Jewellers — Apple Touch Icon -->
  <rect width="180" height="180" rx="36" fill="#1a1a1a"/>
  <!-- Decorative ring -->
  <circle cx="90" cy="90" r="72" fill="none" stroke="#b8860b" stroke-width="2" opacity="0.3"/>
  <circle cx="90" cy="90" r="66" fill="#b8860b" opacity="0.04"/>
  <!-- Ganesh face -->
  <!-- Head -->
  <ellipse cx="90" cy="75" rx="28" ry="32" fill="none" stroke="#d4af37" stroke-width="3"/>
  <!-- Ears -->
  <path d="M62 70 C52 56 54 36 64 32 C72 29 74 38 73 48" fill="none" stroke="#d4af37" stroke-width="2.5" stroke-linecap="round"/>
  <path d="M118 70 C128 56 126 36 116 32 C108 29 106 38 107 48" fill="none" stroke="#d4af37" stroke-width="2.5" stroke-linecap="round"/>
  <!-- Eyes -->
  <circle cx="80" cy="68" r="3.5" fill="#d4af37"/>
  <circle cx="100" cy="68" r="3.5" fill="#d4af37"/>
  <!-- Crown / Tilak -->
  <circle cx="90" cy="50" r="4.5" fill="#d4af37"/>
  <path d="M83 50 L90 38 L97 50" fill="none" stroke="#d4af37" stroke-width="2" stroke-linejoin="round"/>
  <!-- Trunk -->
  <path d="M90 92 C90 102 84 116 78 126 C74 132 78 134 82 130 C86 126 90 118 90 108" fill="none" stroke="#d4af37" stroke-width="2.5" stroke-linecap="round"/>
  <!-- Tusks -->
  <path d="M82 88 L80 96" stroke="#d4af37" stroke-width="2" stroke-linecap="round"/>
  <path d="M98 88 L100 96" stroke="#d4af37" stroke-width="2" stroke-linecap="round"/>
  <!-- Om -->
  <text x="78" y="162" font-family="Georgia, serif" font-size="22" fill="#d4af37" opacity="0.4">ॐ</text>
  <!-- Corner dots -->
  <circle cx="90" cy="20" r="2.5" fill="#d4af37" opacity="0.4"/>
  <circle cx="90" cy="160" r="2.5" fill="#d4af37" opacity="0.4"/>
  <circle cx="20" cy="90" r="2.5" fill="#d4af37" opacity="0.4"/>
  <circle cx="160" cy="90" r="2.5" fill="#d4af37" opacity="0.4"/>
</svg>
