<svg xmlns="http://www.w3.org/2000/svg" viewBox="0 0 32 32" width="32" height="32">
  <!-- Shree Ganesh Jewellers — Favicon -->
  <rect width="32" height="32" rx="7" fill="#1a1a1a"/>
  <!-- Decorative ring -->
  <circle cx="16" cy="16" r="13" fill="none" stroke="#b8860b" stroke-width="0.8" opacity="0.4"/>
  <!-- Mini Ganesh face -->
  <!-- Head -->
  <ellipse cx="16" cy="13" rx="5.5" ry="6" fill="none" stroke="#d4af37" stroke-width="1.2"/>
  <!-- Ears -->
  <path d="M10.5 12 C8.5 9 9 5.5 11.5 5 C13.5 4.5 14 6.5 13.5 9" fill="none" stroke="#d4af37" stroke-width="1" stroke-linecap="round"/>
  <path d="M21.5 12 C23.5 9 23 5.5 20.5 5 C18.5 4.5 18 6.5 18.5 9" fill="none" stroke="#d4af37" stroke-width="1" stroke-linecap="round"/>
  <!-- Eyes -->
  <circle cx="14" cy="11.5" r="0.8" fill="#d4af37"/>
  <circle cx="18" cy="11.5" r="0.8" fill="#d4af37"/>
  <!-- Crown -->
  <circle cx="16" cy="8" r="1" fill="#d4af37"/>
  <!-- Trunk -->
  <path d="M16 17 C16 19 14.5 21.5 13 23.5 C12 25 13 25.5 14 24.5 C15 23 16 21 16 19" fill="none" stroke="#d4af37" stroke-width="1" stroke-linecap="round"/>
  <!-- Tusks -->
  <path d="M14.5 16 L14 18" stroke="#d4af37" stroke-width="0.8" stroke-linecap="round"/>
  <path d="M17.5 16 L18 18" stroke="#d4af37" stroke-width="0.8" stroke-linecap="round"/>
  <!-- Om at bottom -->
  <text x="13.5" y="30" font-family="Georgia, serif" font-size="5" fill="#d4af37" opacity="0.5">ॐ</text>
</svg>
