<svg xmlns="http://www.w3.org/2000/svg" viewBox="0 0 32 32" width="32" height="32">
  <defs>
    <linearGradient id="g" x1="0%" y1="0%" x2="100%" y2="100%">
      <stop offset="0%" style="stop-color:#1e40af"/>
      <stop offset="100%" style="stop-color:#0891b2"/>
    </linearGradient>
  </defs>
  <rect width="32" height="32" rx="6" fill="url(#g)"/>
  <path d="M16 5 C16 5 9 14 9 18.5 C9 22.4 12.1 25.5 16 25.5 C19.9 25.5 23 22.4 23 18.5 C23 14 16 5 16 5Z" fill="white" opacity="0.95"/>
  <path d="M16 10 C16 10 12 16 12 18.5 C12 20.7 13.8 22.5 16 22.5 C18.2 22.5 20 20.7 20 18.5 C20 16 16 10 16 10Z" fill="url(#g)" opacity="0.3"/>
  <path d="M14 17 Q15 15 16.5 17 Q18 19 15 20" stroke="white" stroke-width="1" fill="none" opacity="0.6"/>
</svg>
